<?xml version="1.0" encoding="utf-8"?>
<!-- Generator: Adobe Illustrator 23.0.0, SVG Export Plug-In . SVG Version: 6.00 Build 0)  -->
<svg version="1.1" id="图层_1" xmlns="http://www.w3.org/2000/svg" xmlns:xlink="http://www.w3.org/1999/xlink" x="0px" y="0px"
	 viewBox="0 0 135 38" style="enable-background:new 0 0 135 38;" xml:space="preserve">
<style type="text/css">
	.st0{fill-rule:evenodd;clip-rule:evenodd;fill:#2866B0;}
	.st1{fill:#142344;stroke:#172345;stroke-width:0.2;stroke-miterlimit:10;}
</style>
<g>
	<path class="st0" d="M11.6,18.7c-0.7,0-1.4-0.4-1.4-0.9s0.6-0.9,1.4-0.9c0.7,0,1.4,0.4,1.4,0.9S12.3,18.7,11.6,18.7z M16,14.7
		c0.5,0,1-0.4,1-1c0-0.5-0.4-1-1-1c-0.5,0-1,0.4-1,1C15,14.3,15.4,14.7,16,14.7z M7.1,14.7c0.5,0,1-0.4,1-1c0-0.5-0.4-1-1-1
		c-0.5,0-1,0.4-1,1C6.1,14.3,6.6,14.7,7.1,14.7z M11.5,20.9c0.3,0.6,0.7,1,1.1,1.3c-0.3,0.3-0.6,0.5-1.1,0.5c-0.4,0-0.8-0.2-1.1-0.5
		C10.8,21.9,11.2,21.5,11.5,20.9z M17.7,17.1c-0.2-0.1-0.3-0.3-0.5-0.4c-1.2-1.1-3.3-1.9-5.5-1.9c-2.7,0-5.3,1.3-6.2,2.7
		c-0.5,0.7-0.8,1.5-0.8,2.2c0,1.4,1.1,2.6,2.6,3l0.5,2.5c0.1,0.3,0.3,0.6,0.7,0.7c0.3,0,0.5-0.1,0.6-0.4c0,0,0-0.1,0-0.1v-2.5
		c0.3,0,0.6-0.1,0.8-0.3c0.4,0.5,1,0.9,1.7,0.9c0.7,0,1.3-0.3,1.7-0.8c0.3,0.1,0.5,0.2,0.8,0.2v2.5c0,0,0,0.1,0,0.1
		c0,0.3,0.3,0.5,0.6,0.4c0.3-0.1,0.6-0.3,0.7-0.7l0.5-2.5c0.3-0.1,0.6-0.2,0.9-0.4c0.4-0.2,1.1-0.9,1.6-1.6c0.2-0.3,0.3-0.4,0.4-0.6
		c0.7,0.7,1.6,1.7,2.7,2.8c-1.6,3.9-5.4,6.6-9.8,6.6C5.7,29.6,1,24.8,1,19S5.7,8.4,11.6,8.4c1.6,0,3.2,0.4,4.6,1c1,0.4,2,1.1,2.8,2
		c0,0,0,0,0.1,0.1c0.2,0.2,0.4,0.4,0.6,0.7c0.2,0.2,0.4,0.5,0.7,0.8c1,1.1,2.2,2.5,3.4,3.9l0,0c1.2,1.3,2.1,2.3,2.7,3
		c0.8,0.9,3.6,3.8,3.8,4c1.1,0.9,2.4,1.4,3.9,1.4c3.4,0,6.1-2.8,6.1-6.1s-2.8-6.1-6.1-6.1c-0.7,0-1.3,0.2-1.9,0.4
		c-2.4,1.2-2.4,2.9-2.3,3.9c-1,0.1-1.7,0-2.3-1.7c-0.1-0.2-0.1-0.5-0.2-0.5c-0.8,1.8-1.7,1.7-2.7,1.6c-0.3-1.4,0.6-3.7,2.1-5.3
		c1.8-1.9,4.3-3,7.2-3c5.8,0,10.6,4.7,10.6,10.6S39.8,29.6,34,29.6c-2.6,0-5-1-6.9-2.6c-0.1-0.1-0.6-0.6-1.4-1.4l-2.2-2.2
		c-1.4-1.6-2.4-2.7-3-3.2C20.2,19.9,19.3,18.8,17.7,17.1z"/>
	<g>
		<g>
			<defs>
				<path id="SVGID_15_" d="M133.7,17.9c0,0.4-0.2,0.8-0.5,1c-0.2,0.2-0.5,0.3-0.8,0.3c-0.9,0-1.3-0.8-1.6-1.2
					c-0.6-0.6-1.6-0.8-2.4-0.8c-1.1,0-2,0.4-2,1.3c0,0.6,0.2,0.9,3,1.5c3.1,0.6,4.7,1.8,4.7,4c0,3.4-3.7,3.8-5.5,3.8
					c-3,0-5.1-1.4-5.7-2.9c-0.1-0.2-0.1-0.3-0.1-0.5c0-0.5,0.2-0.8,0.7-1.1c0.9-0.5,1.6,0.5,2.7,1.4c0.7,0.6,1.7,0.8,2.3,0.8
					c0.6,0,2.9,0.2,2.9-1.3c0-1-0.7-1.2-3.5-1.8c-3.2-0.7-4.9-1.4-4.9-3.6c0-3.2,4-4.1,5.3-4.1c3.6,0,4.9,1.5,5.5,2.7
					c0,0.1,0,0.1,0,0.2C133.7,17.8,133.7,17.9,133.7,17.9z"/>
			</defs>
			<clipPath id="SVGID_1_">
				<use xlink:href="#SVGID_15_"  style="overflow:visible;"/>
			</clipPath>
		</g>
		<path class="st1" d="M133.7,17.9c0,0.4-0.2,0.8-0.5,1c-0.2,0.2-0.5,0.3-0.8,0.3c-0.9,0-1.3-0.8-1.6-1.2c-0.6-0.6-1.6-0.8-2.4-0.8
			c-1.1,0-2,0.4-2,1.3c0,0.6,0.2,0.9,3,1.5c3.1,0.6,4.7,1.8,4.7,4c0,3.4-3.7,3.8-5.5,3.8c-3,0-5.1-1.4-5.7-2.9
			c-0.1-0.2-0.1-0.3-0.1-0.5c0-0.5,0.2-0.8,0.7-1.1c0.9-0.5,1.6,0.5,2.7,1.4c0.7,0.6,1.7,0.8,2.3,0.8c0.6,0,2.9,0.2,2.9-1.3
			c0-1-0.7-1.2-3.5-1.8c-3.2-0.7-4.9-1.4-4.9-3.6c0-3.2,4-4.1,5.3-4.1c3.6,0,4.9,1.5,5.5,2.7c0,0.1,0,0.1,0,0.2
			C133.7,17.8,133.7,17.9,133.7,17.9z"/>
		<g>
			<defs>
				<path id="SVGID_17_" d="M116.4,26.2c-1.8,1.5-3.7,2-5.6,1.4c-2.1-0.6-3.1-2.2-3-4.6v-0.8v-5.7c0-0.9,0.7-1.6,1.6-1.6
					c0.9,0,1.6,0.7,1.6,1.6V23c0.2,1.1,1.1,1.7,2.7,1.7c1.6,0,2.5-0.8,2.6-2.4v-5.5c0-1,0.8-1.8,1.8-1.8c1,0,1.8,0.8,1.8,1.8v9.4
					c0,1-0.8,1.8-1.8,1.8C117.2,27.9,116.4,27.1,116.4,26.2z"/>
			</defs>
			<use xlink:href="#SVGID_17_"  style="overflow:visible;fill-rule:evenodd;clip-rule:evenodd;fill:#142344;"/>
			<clipPath id="SVGID_2_">
				<use xlink:href="#SVGID_17_"  style="overflow:visible;"/>
			</clipPath>
			
				<use xlink:href="#SVGID_17_"  style="overflow:visible;fill-rule:evenodd;clip-rule:evenodd;fill:none;stroke:#172345;stroke-width:0.2;stroke-miterlimit:10;"/>
		</g>
		<g>
			<defs>
				<path id="SVGID_19_" d="M93.1,10.1L93.1,10.1c0.9,0,1.6,0.7,1.6,1.6v14.5c0,0.9-0.7,1.6-1.6,1.6s-1.6-0.7-1.6-1.6V11.7
					C91.5,10.8,92.2,10.1,93.1,10.1z"/>
			</defs>
			<use xlink:href="#SVGID_19_"  style="overflow:visible;fill-rule:evenodd;clip-rule:evenodd;fill:#142344;"/>
			<clipPath id="SVGID_3_">
				<use xlink:href="#SVGID_19_"  style="overflow:visible;"/>
			</clipPath>
			
				<use xlink:href="#SVGID_19_"  style="overflow:visible;fill-rule:evenodd;clip-rule:evenodd;fill:none;stroke:#172345;stroke-width:0.2;stroke-miterlimit:10;"/>
		</g>
		<g>
			<defs>
				<path id="SVGID_21_" d="M98.8,14.6L98.8,14.6c1,0,1.7,0.8,1.7,1.7v9.5c0,1-0.8,1.7-1.7,1.7s-1.7-0.8-1.7-1.7v-9.5
					C97.1,15.4,97.8,14.6,98.8,14.6z"/>
			</defs>
			<use xlink:href="#SVGID_21_"  style="overflow:visible;fill-rule:evenodd;clip-rule:evenodd;fill:#142344;"/>
			<clipPath id="SVGID_4_">
				<use xlink:href="#SVGID_21_"  style="overflow:visible;"/>
			</clipPath>
			
				<use xlink:href="#SVGID_21_"  style="overflow:visible;fill-rule:evenodd;clip-rule:evenodd;fill:none;stroke:#172345;stroke-width:0.2;stroke-miterlimit:10;"/>
		</g>
		<g>
			<defs>
				<path id="SVGID_23_" d="M101.2,18.5l0-0.4c-0.1-1.4,0.8-2.7,2.1-3.1l0,0c0.1-0.1,0.3-0.1,0.5-0.1v0c0.9-0.2,1.8,0.3,2.1,1.1
					c0.3,0.8-0.1,1.6-0.9,1.9c-0.6,0.2-1.1,0.4-1.4,0.5C103,18.4,102.2,18.5,101.2,18.5z"/>
			</defs>
			<use xlink:href="#SVGID_23_"  style="overflow:visible;fill-rule:evenodd;clip-rule:evenodd;fill:#142344;"/>
			<clipPath id="SVGID_5_">
				<use xlink:href="#SVGID_23_"  style="overflow:visible;"/>
			</clipPath>
			
				<use xlink:href="#SVGID_23_"  style="overflow:visible;fill-rule:evenodd;clip-rule:evenodd;fill:none;stroke:#172345;stroke-width:0.2;stroke-miterlimit:10;"/>
		</g>
		<g>
			<defs>
				<path id="SVGID_25_" d="M85.4,21.3v-0.4c-0.1-1.9-1.6-3.3-3.5-3.3c-2,0-3.5,1.6-3.5,3.5s1.6,3.5,3.5,3.5
					C83.8,24.6,85.3,23.2,85.4,21.3z M85.4,25.8c-1.1,1.2-2.6,2-4.3,2c-3.3,0-6-3-6-6.7s2.7-6.4,6-6.4c1.7,0,3.2,0.7,4.3,2v0
					c0-0.9,0.7-1.6,1.6-1.6s1.6,0.7,1.6,1.6v9.6c0,0.9-0.7,1.6-1.6,1.6s-1.6-0.7-1.6-1.6V25.8z"/>
			</defs>
			<use xlink:href="#SVGID_25_"  style="overflow:visible;fill-rule:evenodd;clip-rule:evenodd;fill:#142344;"/>
			<clipPath id="SVGID_6_">
				<use xlink:href="#SVGID_25_"  style="overflow:visible;"/>
			</clipPath>
			
				<use xlink:href="#SVGID_25_"  style="overflow:visible;fill-rule:evenodd;clip-rule:evenodd;fill:none;stroke:#172345;stroke-width:0.2;stroke-miterlimit:10;"/>
		</g>
		<g>
			<defs>
				<path id="SVGID_27_" d="M53.6,11.2L53.6,11.2c0.9-0.1,1.8,0.5,2,1.4l2.3,11.1l3.1-10.8c0.3-1,1.1-1.6,2.1-1.6
					c1,0,1.9,0.7,2.1,1.6l3.1,10.8l2.3-11.1c0.2-1,1.2-1.6,2.2-1.4c0,0,0,0,0.1,0c1,0.3,1.6,1.3,1.4,2.3l-3.1,12.4
					c-0.3,1.2-1.4,2-2.6,2c-1.3,0-2.4-0.8-2.7-2L63,16.6l-2.7,9.3c-0.4,1.2-1.5,2-2.7,2c-1.2,0-2.3-0.9-2.6-2.1l-2.8-12.8
					C52.1,12.2,52.6,11.4,53.6,11.2C53.5,11.2,53.5,11.2,53.6,11.2z"/>
			</defs>
			<clipPath id="SVGID_7_">
				<use xlink:href="#SVGID_27_"  style="overflow:visible;"/>
			</clipPath>
		</g>
		<path class="st1" d="M53.6,11.2L53.6,11.2c0.9-0.1,1.8,0.5,2,1.4l2.3,11.1l3.1-10.8c0.3-1,1.1-1.6,2.1-1.6s1.9,0.7,2.1,1.6
			l3.1,10.8l2.3-11.1c0.2-1,1.2-1.6,2.2-1.4c0,0,0,0,0.1,0c1,0.3,1.6,1.3,1.4,2.3l-3.1,12.4c-0.3,1.2-1.4,2-2.6,2
			c-1.3,0-2.4-0.8-2.7-2L63,16.6l-2.7,9.3c-0.4,1.2-1.5,2-2.7,2c-1.2,0-2.3-0.9-2.6-2.1l-2.8-12.8C52.1,12.2,52.6,11.4,53.6,11.2
			C53.5,11.2,53.5,11.2,53.6,11.2z"/>
	</g>
</g>
</svg>
